<mxfile host="app.diagrams.net" modified="2022-09-17T15:27:54.856Z" agent="5.0 (Windows NT 10.0; Win64; x64) AppleWebKit/537.36 (KHTML, like Gecko) Chrome/105.0.0.0 Safari/537.36 Edg/105.0.1343.42" etag="aFMRUI8FviakvIShMxSN" version="20.3.1" type="github">
  <diagram id="Edgwh7HsTJ25EXlXXnaa" name="Page-1">
    <mxGraphModel dx="2120" dy="614" grid="1" gridSize="10" guides="1" tooltips="1" connect="1" arrows="1" fold="1" page="1" pageScale="1" pageWidth="827" pageHeight="1169" background="#EEEEEE" math="0" shadow="0">
      <root>
        <mxCell id="0" />
        <mxCell id="1" parent="0" />
        <mxCell id="fiAWGYo_z49fpV4L9z-i-24" value="" style="edgeStyle=orthogonalEdgeStyle;rounded=0;orthogonalLoop=1;jettySize=auto;html=1;labelBackgroundColor=#EEEEEE;strokeColor=#182E3E;fontColor=#1A1A1A;" parent="1" source="fiAWGYo_z49fpV4L9z-i-1" target="fiAWGYo_z49fpV4L9z-i-2" edge="1">
          <mxGeometry relative="1" as="geometry" />
        </mxCell>
        <mxCell id="fiAWGYo_z49fpV4L9z-i-79" style="edgeStyle=orthogonalEdgeStyle;rounded=0;orthogonalLoop=1;jettySize=auto;html=1;entryX=0.733;entryY=0;entryDx=0;entryDy=0;entryPerimeter=0;strokeColor=#182E3E;fontColor=#1A1A1A;" parent="1" source="fiAWGYo_z49fpV4L9z-i-1" target="fiAWGYo_z49fpV4L9z-i-3" edge="1">
          <mxGeometry relative="1" as="geometry" />
        </mxCell>
        <mxCell id="fiAWGYo_z49fpV4L9z-i-1" value="Are you our taxi driver?&amp;nbsp;" style="ellipse;whiteSpace=wrap;html=1;aspect=fixed;fillColor=#F5AB50;strokeColor=#909090;fontColor=#1A1A1A;" parent="1" vertex="1">
          <mxGeometry y="190" width="80" height="80" as="geometry" />
        </mxCell>
        <mxCell id="fiAWGYo_z49fpV4L9z-i-33" value="" style="edgeStyle=orthogonalEdgeStyle;rounded=0;orthogonalLoop=1;jettySize=auto;html=1;labelBackgroundColor=#EEEEEE;strokeColor=#182E3E;fontColor=#1A1A1A;" parent="1" source="fiAWGYo_z49fpV4L9z-i-2" edge="1">
          <mxGeometry relative="1" as="geometry">
            <mxPoint x="200" y="335" as="targetPoint" />
          </mxGeometry>
        </mxCell>
        <mxCell id="fiAWGYo_z49fpV4L9z-i-2" value="YES" style="shape=hexagon;perimeter=hexagonPerimeter2;whiteSpace=wrap;html=1;fixedSize=1;fillColor=#F5AB50;strokeColor=#909090;fontColor=#1A1A1A;" parent="1" vertex="1">
          <mxGeometry x="50" y="300" width="100" height="70" as="geometry" />
        </mxCell>
        <mxCell id="fiAWGYo_z49fpV4L9z-i-5" value="" style="edgeStyle=orthogonalEdgeStyle;rounded=0;orthogonalLoop=1;jettySize=auto;html=1;labelBackgroundColor=#EEEEEE;strokeColor=#182E3E;fontColor=#1A1A1A;" parent="1" source="fiAWGYo_z49fpV4L9z-i-3" target="fiAWGYo_z49fpV4L9z-i-4" edge="1">
          <mxGeometry relative="1" as="geometry">
            <Array as="points">
              <mxPoint x="-30" y="390" />
              <mxPoint x="-30" y="390" />
            </Array>
          </mxGeometry>
        </mxCell>
        <mxCell id="fiAWGYo_z49fpV4L9z-i-3" value="NO" style="shape=hexagon;perimeter=hexagonPerimeter2;whiteSpace=wrap;html=1;fixedSize=1;fillColor=#F5AB50;strokeColor=#909090;fontColor=#1A1A1A;" parent="1" vertex="1">
          <mxGeometry x="-70" y="300" width="100" height="70" as="geometry" />
        </mxCell>
        <mxCell id="fiAWGYo_z49fpV4L9z-i-78" value="" style="edgeStyle=orthogonalEdgeStyle;rounded=0;orthogonalLoop=1;jettySize=auto;html=1;strokeColor=#182E3E;fontColor=#1A1A1A;" parent="1" source="fiAWGYo_z49fpV4L9z-i-4" target="fiAWGYo_z49fpV4L9z-i-7" edge="1">
          <mxGeometry relative="1" as="geometry" />
        </mxCell>
        <mxCell id="fiAWGYo_z49fpV4L9z-i-81" value="" style="edgeStyle=orthogonalEdgeStyle;rounded=0;orthogonalLoop=1;jettySize=auto;html=1;strokeColor=#182E3E;fontColor=#1A1A1A;" parent="1" source="fiAWGYo_z49fpV4L9z-i-4" target="fiAWGYo_z49fpV4L9z-i-6" edge="1">
          <mxGeometry relative="1" as="geometry" />
        </mxCell>
        <mxCell id="fiAWGYo_z49fpV4L9z-i-4" value="Do you want to register?" style="ellipse;whiteSpace=wrap;html=1;fillColor=#F5AB50;strokeColor=#909090;fontColor=#1A1A1A;" parent="1" vertex="1">
          <mxGeometry x="-90" y="430" width="120" height="60" as="geometry" />
        </mxCell>
        <mxCell id="fiAWGYo_z49fpV4L9z-i-58" value="" style="edgeStyle=orthogonalEdgeStyle;rounded=0;orthogonalLoop=1;jettySize=auto;html=1;labelBackgroundColor=#EEEEEE;strokeColor=#182E3E;fontColor=#1A1A1A;" parent="1" source="fiAWGYo_z49fpV4L9z-i-6" edge="1">
          <mxGeometry relative="1" as="geometry">
            <mxPoint x="190" y="490" as="targetPoint" />
          </mxGeometry>
        </mxCell>
        <mxCell id="fiAWGYo_z49fpV4L9z-i-6" value="YES" style="rhombus;whiteSpace=wrap;html=1;fillColor=#F5AB50;strokeColor=#909090;fontColor=#1A1A1A;" parent="1" vertex="1">
          <mxGeometry x="50" y="420" width="80" height="80" as="geometry" />
        </mxCell>
        <mxCell id="fiAWGYo_z49fpV4L9z-i-55" value="" style="edgeStyle=orthogonalEdgeStyle;rounded=0;orthogonalLoop=1;jettySize=auto;html=1;labelBackgroundColor=#EEEEEE;strokeColor=#182E3E;fontColor=#1A1A1A;" parent="1" source="fiAWGYo_z49fpV4L9z-i-7" target="fiAWGYo_z49fpV4L9z-i-8" edge="1">
          <mxGeometry relative="1" as="geometry" />
        </mxCell>
        <mxCell id="fiAWGYo_z49fpV4L9z-i-7" value="NO" style="rhombus;whiteSpace=wrap;html=1;fillColor=#F5AB50;strokeColor=#909090;fontColor=#1A1A1A;" parent="1" vertex="1">
          <mxGeometry x="-70" y="530" width="80" height="80" as="geometry" />
        </mxCell>
        <mxCell id="fiAWGYo_z49fpV4L9z-i-8" value="END" style="rhombus;whiteSpace=wrap;html=1;fillColor=#F5AB50;strokeColor=#909090;fontColor=#1A1A1A;" parent="1" vertex="1">
          <mxGeometry x="-70" y="690" width="80" height="80" as="geometry" />
        </mxCell>
        <mxCell id="fiAWGYo_z49fpV4L9z-i-67" value="" style="edgeStyle=orthogonalEdgeStyle;rounded=0;orthogonalLoop=1;jettySize=auto;html=1;labelBackgroundColor=#EEEEEE;strokeColor=#182E3E;fontColor=#1A1A1A;" parent="1" source="fiAWGYo_z49fpV4L9z-i-13" edge="1">
          <mxGeometry relative="1" as="geometry">
            <mxPoint x="300" y="335" as="sourcePoint" />
            <mxPoint x="370" y="340" as="targetPoint" />
          </mxGeometry>
        </mxCell>
        <mxCell id="fiAWGYo_z49fpV4L9z-i-13" value="ID(driversID) and pasword" style="ellipse;whiteSpace=wrap;html=1;aspect=fixed;fillColor=#F5AB50;strokeColor=#909090;fontColor=#1A1A1A;" parent="1" vertex="1">
          <mxGeometry x="200" y="290" width="80" height="80" as="geometry" />
        </mxCell>
        <mxCell id="Cdr7RzYkJ2RV1yq09txf-5" style="edgeStyle=orthogonalEdgeStyle;rounded=0;orthogonalLoop=1;jettySize=auto;html=1;exitX=0.5;exitY=0;exitDx=0;exitDy=0;entryX=0.5;entryY=1;entryDx=0;entryDy=0;" edge="1" parent="1" source="fiAWGYo_z49fpV4L9z-i-14" target="fiAWGYo_z49fpV4L9z-i-13">
          <mxGeometry relative="1" as="geometry" />
        </mxCell>
        <mxCell id="Cdr7RzYkJ2RV1yq09txf-6" style="edgeStyle=orthogonalEdgeStyle;rounded=0;orthogonalLoop=1;jettySize=auto;html=1;entryX=-0.012;entryY=0.7;entryDx=0;entryDy=0;entryPerimeter=0;" edge="1" parent="1" source="fiAWGYo_z49fpV4L9z-i-14" target="fiAWGYo_z49fpV4L9z-i-101">
          <mxGeometry relative="1" as="geometry" />
        </mxCell>
        <mxCell id="fiAWGYo_z49fpV4L9z-i-14" value="Form of registration" style="ellipse;whiteSpace=wrap;html=1;aspect=fixed;fillColor=#F5AB50;strokeColor=#909090;fontColor=#1A1A1A;" parent="1" vertex="1">
          <mxGeometry x="195" y="450" width="80" height="80" as="geometry" />
        </mxCell>
        <mxCell id="fiAWGYo_z49fpV4L9z-i-27" value="List" style="swimlane;fontStyle=0;childLayout=stackLayout;horizontal=1;startSize=30;horizontalStack=0;resizeParent=1;resizeParentMax=0;resizeLast=0;collapsible=1;marginBottom=0;fillColor=#F5AB50;strokeColor=#909090;fontColor=#1A1A1A;" parent="1" vertex="1">
          <mxGeometry x="760" y="710" width="140" height="120" as="geometry" />
        </mxCell>
        <mxCell id="fiAWGYo_z49fpV4L9z-i-28" value="Tarif scale by time" style="text;strokeColor=none;fillColor=none;align=left;verticalAlign=middle;spacingLeft=4;spacingRight=4;overflow=hidden;points=[[0,0.5],[1,0.5]];portConstraint=eastwest;rotatable=0;fontColor=#1A1A1A;" parent="fiAWGYo_z49fpV4L9z-i-27" vertex="1">
          <mxGeometry y="30" width="140" height="30" as="geometry" />
        </mxCell>
        <mxCell id="fiAWGYo_z49fpV4L9z-i-29" value="KM" style="text;strokeColor=none;fillColor=none;align=left;verticalAlign=middle;spacingLeft=4;spacingRight=4;overflow=hidden;points=[[0,0.5],[1,0.5]];portConstraint=eastwest;rotatable=0;fontColor=#1A1A1A;" parent="fiAWGYo_z49fpV4L9z-i-27" vertex="1">
          <mxGeometry y="60" width="140" height="30" as="geometry" />
        </mxCell>
        <mxCell id="fiAWGYo_z49fpV4L9z-i-30" value="Time spent in drive" style="text;strokeColor=none;fillColor=none;align=left;verticalAlign=middle;spacingLeft=4;spacingRight=4;overflow=hidden;points=[[0,0.5],[1,0.5]];portConstraint=eastwest;rotatable=0;fontColor=#1A1A1A;" parent="fiAWGYo_z49fpV4L9z-i-27" vertex="1">
          <mxGeometry y="90" width="140" height="30" as="geometry" />
        </mxCell>
        <mxCell id="fiAWGYo_z49fpV4L9z-i-40" value="Cars DB" style="swimlane;fontStyle=0;childLayout=stackLayout;horizontal=1;startSize=30;horizontalStack=0;resizeParent=1;resizeParentMax=0;resizeLast=0;collapsible=1;marginBottom=0;fillColor=#F5AB50;strokeColor=#909090;fontColor=#1A1A1A;" parent="1" vertex="1">
          <mxGeometry x="270" y="710" width="140" height="200" as="geometry" />
        </mxCell>
        <mxCell id="fiAWGYo_z49fpV4L9z-i-41" value="ID (PC)" style="text;strokeColor=none;fillColor=none;align=left;verticalAlign=middle;spacingLeft=4;spacingRight=4;overflow=hidden;points=[[0,0.5],[1,0.5]];portConstraint=eastwest;rotatable=0;fontColor=#1A1A1A;" parent="fiAWGYo_z49fpV4L9z-i-40" vertex="1">
          <mxGeometry y="30" width="140" height="30" as="geometry" />
        </mxCell>
        <mxCell id="fiAWGYo_z49fpV4L9z-i-43" value="Brand&#xa;Year/usage&#xa;" style="text;strokeColor=none;fillColor=none;align=left;verticalAlign=middle;spacingLeft=4;spacingRight=4;overflow=hidden;points=[[0,0.5],[1,0.5]];portConstraint=eastwest;rotatable=0;fontColor=#1A1A1A;" parent="fiAWGYo_z49fpV4L9z-i-40" vertex="1">
          <mxGeometry y="60" width="140" height="80" as="geometry" />
        </mxCell>
        <mxCell id="fiAWGYo_z49fpV4L9z-i-42" value="Plate number" style="text;strokeColor=none;fillColor=none;align=left;verticalAlign=middle;spacingLeft=4;spacingRight=4;overflow=hidden;points=[[0,0.5],[1,0.5]];portConstraint=eastwest;rotatable=0;fontColor=#1A1A1A;" parent="fiAWGYo_z49fpV4L9z-i-40" vertex="1">
          <mxGeometry y="140" width="140" height="60" as="geometry" />
        </mxCell>
        <mxCell id="fiAWGYo_z49fpV4L9z-i-44" value="Users DB" style="swimlane;fontStyle=0;childLayout=stackLayout;horizontal=1;startSize=30;horizontalStack=0;resizeParent=1;resizeParentMax=0;resizeLast=0;collapsible=1;marginBottom=0;fillColor=#F5AB50;strokeColor=#909090;fontColor=#1A1A1A;" parent="1" vertex="1">
          <mxGeometry x="430" y="710" width="140" height="120" as="geometry" />
        </mxCell>
        <mxCell id="fiAWGYo_z49fpV4L9z-i-45" value="ID (PC)" style="text;strokeColor=none;fillColor=none;align=left;verticalAlign=middle;spacingLeft=4;spacingRight=4;overflow=hidden;points=[[0,0.5],[1,0.5]];portConstraint=eastwest;rotatable=0;fontColor=#1A1A1A;" parent="fiAWGYo_z49fpV4L9z-i-44" vertex="1">
          <mxGeometry y="30" width="140" height="30" as="geometry" />
        </mxCell>
        <mxCell id="fiAWGYo_z49fpV4L9z-i-46" value="Licence number/psw" style="text;strokeColor=none;fillColor=none;align=left;verticalAlign=middle;spacingLeft=4;spacingRight=4;overflow=hidden;points=[[0,0.5],[1,0.5]];portConstraint=eastwest;rotatable=0;fontColor=#1A1A1A;" parent="fiAWGYo_z49fpV4L9z-i-44" vertex="1">
          <mxGeometry y="60" width="140" height="30" as="geometry" />
        </mxCell>
        <mxCell id="fiAWGYo_z49fpV4L9z-i-47" value="Name/Surname" style="text;strokeColor=none;fillColor=none;align=left;verticalAlign=middle;spacingLeft=4;spacingRight=4;overflow=hidden;points=[[0,0.5],[1,0.5]];portConstraint=eastwest;rotatable=0;fontColor=#1A1A1A;" parent="fiAWGYo_z49fpV4L9z-i-44" vertex="1">
          <mxGeometry y="90" width="140" height="30" as="geometry" />
        </mxCell>
        <mxCell id="fiAWGYo_z49fpV4L9z-i-48" value="Trips DB" style="swimlane;fontStyle=0;childLayout=stackLayout;horizontal=1;startSize=30;horizontalStack=0;resizeParent=1;resizeParentMax=0;resizeLast=0;collapsible=1;marginBottom=0;fillColor=#F5AB50;strokeColor=#909090;fontColor=#1A1A1A;" parent="1" vertex="1">
          <mxGeometry x="590" y="710" width="140" height="120" as="geometry" />
        </mxCell>
        <mxCell id="fiAWGYo_z49fpV4L9z-i-49" value="ID (PC)" style="text;strokeColor=none;fillColor=none;align=left;verticalAlign=middle;spacingLeft=4;spacingRight=4;overflow=hidden;points=[[0,0.5],[1,0.5]];portConstraint=eastwest;rotatable=0;fontColor=#1A1A1A;" parent="fiAWGYo_z49fpV4L9z-i-48" vertex="1">
          <mxGeometry y="30" width="140" height="30" as="geometry" />
        </mxCell>
        <mxCell id="fiAWGYo_z49fpV4L9z-i-50" value="Date&#xa;time" style="text;strokeColor=none;fillColor=none;align=left;verticalAlign=middle;spacingLeft=4;spacingRight=4;overflow=hidden;points=[[0,0.5],[1,0.5]];portConstraint=eastwest;rotatable=0;fontColor=#1A1A1A;" parent="fiAWGYo_z49fpV4L9z-i-48" vertex="1">
          <mxGeometry y="60" width="140" height="30" as="geometry" />
        </mxCell>
        <mxCell id="fiAWGYo_z49fpV4L9z-i-51" value="duration/root -destination" style="text;strokeColor=none;fillColor=none;align=left;verticalAlign=middle;spacingLeft=4;spacingRight=4;overflow=hidden;points=[[0,0.5],[1,0.5]];portConstraint=eastwest;rotatable=0;fontColor=#1A1A1A;" parent="fiAWGYo_z49fpV4L9z-i-48" vertex="1">
          <mxGeometry y="90" width="140" height="30" as="geometry" />
        </mxCell>
        <mxCell id="fiAWGYo_z49fpV4L9z-i-76" value="&lt;b&gt;&lt;font style=&quot;font-size: 14px;&quot;&gt;Wonderlands Lady Taxi app&lt;/font&gt;&lt;/b&gt;" style="ellipse;shape=cloud;whiteSpace=wrap;html=1;fillColor=#FFCC99;strokeColor=#909090;fontColor=#1A1A1A;" parent="1" vertex="1">
          <mxGeometry x="110" y="40" width="250" height="120" as="geometry" />
        </mxCell>
        <mxCell id="fiAWGYo_z49fpV4L9z-i-82" value="reports" style="swimlane;fontStyle=0;childLayout=stackLayout;horizontal=1;startSize=30;horizontalStack=0;resizeParent=1;resizeParentMax=0;resizeLast=0;collapsible=1;marginBottom=0;strokeColor=#909090;fontColor=#1A1A1A;fillColor=#F5AB50;" parent="1" vertex="1">
          <mxGeometry x="90" y="720" width="140" height="120" as="geometry" />
        </mxCell>
        <mxCell id="fiAWGYo_z49fpV4L9z-i-83" value="who was driving" style="text;strokeColor=none;fillColor=none;align=left;verticalAlign=middle;spacingLeft=4;spacingRight=4;overflow=hidden;points=[[0,0.5],[1,0.5]];portConstraint=eastwest;rotatable=0;fontColor=#1A1A1A;" parent="fiAWGYo_z49fpV4L9z-i-82" vertex="1">
          <mxGeometry y="30" width="140" height="30" as="geometry" />
        </mxCell>
        <mxCell id="fiAWGYo_z49fpV4L9z-i-84" value="what trip was taken" style="text;strokeColor=none;fillColor=none;align=left;verticalAlign=middle;spacingLeft=4;spacingRight=4;overflow=hidden;points=[[0,0.5],[1,0.5]];portConstraint=eastwest;rotatable=0;fontColor=#1A1A1A;" parent="fiAWGYo_z49fpV4L9z-i-82" vertex="1">
          <mxGeometry y="60" width="140" height="30" as="geometry" />
        </mxCell>
        <mxCell id="fiAWGYo_z49fpV4L9z-i-85" value="car driven with" style="text;strokeColor=none;fillColor=none;align=left;verticalAlign=middle;spacingLeft=4;spacingRight=4;overflow=hidden;points=[[0,0.5],[1,0.5]];portConstraint=eastwest;rotatable=0;fontColor=#1A1A1A;" parent="fiAWGYo_z49fpV4L9z-i-82" vertex="1">
          <mxGeometry y="90" width="140" height="30" as="geometry" />
        </mxCell>
        <mxCell id="fiAWGYo_z49fpV4L9z-i-31" value="End of the process" style="ellipse;whiteSpace=wrap;html=1;aspect=fixed;fillColor=#F5AB50;strokeColor=#909090;fontColor=#1A1A1A;" parent="1" vertex="1">
          <mxGeometry x="840" y="100" width="80" height="80" as="geometry" />
        </mxCell>
        <mxCell id="fiAWGYo_z49fpV4L9z-i-96" value="Validation check" style="shape=callout;whiteSpace=wrap;html=1;perimeter=calloutPerimeter;strokeColor=#909090;fontColor=#1A1A1A;fillColor=#FFCC99;" parent="1" vertex="1">
          <mxGeometry x="180" y="230" width="120" height="80" as="geometry" />
        </mxCell>
        <mxCell id="fiAWGYo_z49fpV4L9z-i-97" value="Validation check" style="shape=callout;whiteSpace=wrap;html=1;perimeter=calloutPerimeter;strokeColor=#909090;fontColor=#1A1A1A;fillColor=#FFCC99;" parent="1" vertex="1">
          <mxGeometry x="195" y="390" width="120" height="80" as="geometry" />
        </mxCell>
        <mxCell id="fiAWGYo_z49fpV4L9z-i-110" value="" style="edgeStyle=orthogonalEdgeStyle;rounded=0;orthogonalLoop=1;jettySize=auto;html=1;strokeColor=#182E3E;fontColor=#1A1A1A;" parent="1" source="fiAWGYo_z49fpV4L9z-i-101" target="fiAWGYo_z49fpV4L9z-i-108" edge="1">
          <mxGeometry relative="1" as="geometry" />
        </mxCell>
        <mxCell id="Cdr7RzYkJ2RV1yq09txf-7" style="edgeStyle=orthogonalEdgeStyle;rounded=0;orthogonalLoop=1;jettySize=auto;html=1;" edge="1" parent="1" source="fiAWGYo_z49fpV4L9z-i-101" target="fiAWGYo_z49fpV4L9z-i-117">
          <mxGeometry relative="1" as="geometry" />
        </mxCell>
        <mxCell id="fiAWGYo_z49fpV4L9z-i-101" value="Report new trip" style="ellipse;whiteSpace=wrap;html=1;aspect=fixed;strokeColor=#909090;fontColor=#1A1A1A;fillColor=#F5AB50;" parent="1" vertex="1">
          <mxGeometry x="360" y="490" width="80" height="80" as="geometry" />
        </mxCell>
        <mxCell id="Cdr7RzYkJ2RV1yq09txf-8" value="" style="edgeStyle=orthogonalEdgeStyle;rounded=0;orthogonalLoop=1;jettySize=auto;html=1;" edge="1" parent="1" source="fiAWGYo_z49fpV4L9z-i-102" target="fiAWGYo_z49fpV4L9z-i-103">
          <mxGeometry relative="1" as="geometry" />
        </mxCell>
        <mxCell id="fiAWGYo_z49fpV4L9z-i-102" value="See my trips driven" style="ellipse;whiteSpace=wrap;html=1;aspect=fixed;strokeColor=#909090;fontColor=#1A1A1A;fillColor=#F5AB50;" parent="1" vertex="1">
          <mxGeometry x="360" y="295" width="80" height="80" as="geometry" />
        </mxCell>
        <mxCell id="Cdr7RzYkJ2RV1yq09txf-9" value="" style="edgeStyle=orthogonalEdgeStyle;rounded=0;orthogonalLoop=1;jettySize=auto;html=1;" edge="1" parent="1" source="fiAWGYo_z49fpV4L9z-i-103" target="fiAWGYo_z49fpV4L9z-i-112">
          <mxGeometry relative="1" as="geometry" />
        </mxCell>
        <mxCell id="fiAWGYo_z49fpV4L9z-i-103" value="Calculate my profit" style="ellipse;whiteSpace=wrap;html=1;aspect=fixed;strokeColor=#909090;fontColor=#1A1A1A;fillColor=#F5AB50;" parent="1" vertex="1">
          <mxGeometry x="480" y="292.5" width="80" height="80" as="geometry" />
        </mxCell>
        <mxCell id="fiAWGYo_z49fpV4L9z-i-104" value="Chescks to br done" style="swimlane;fillColor=#F5AB50;strokeColor=#909090;fontColor=#1A1A1A;" parent="1" vertex="1">
          <mxGeometry x="430" y="860" width="200" height="110" as="geometry" />
        </mxCell>
        <mxCell id="fiAWGYo_z49fpV4L9z-i-105" value="Validation checks&lt;br&gt;3 databases" style="text;html=1;align=center;verticalAlign=middle;resizable=0;points=[];autosize=1;strokeColor=none;fillColor=none;fontColor=#1A1A1A;" parent="fiAWGYo_z49fpV4L9z-i-104" vertex="1">
          <mxGeometry x="40" y="40" width="120" height="40" as="geometry" />
        </mxCell>
        <mxCell id="fiAWGYo_z49fpV4L9z-i-106" value="List of trips gets printed out" style="shape=callout;whiteSpace=wrap;html=1;perimeter=calloutPerimeter;strokeColor=#909090;fontColor=#1A1A1A;fillColor=#FFCC99;" parent="1" vertex="1">
          <mxGeometry x="350" y="215" width="120" height="80" as="geometry" />
        </mxCell>
        <mxCell id="fiAWGYo_z49fpV4L9z-i-107" value="Profit is calculated and printed out" style="shape=callout;whiteSpace=wrap;html=1;perimeter=calloutPerimeter;strokeColor=#909090;fontColor=#1A1A1A;fillColor=#FFCC99;" parent="1" vertex="1">
          <mxGeometry x="490" y="212.5" width="120" height="80" as="geometry" />
        </mxCell>
        <mxCell id="fiAWGYo_z49fpV4L9z-i-108" value="New trip gets reported" style="shape=callout;whiteSpace=wrap;html=1;perimeter=calloutPerimeter;strokeColor=#909090;fontColor=#1A1A1A;fillColor=#FFCC99;" parent="1" vertex="1">
          <mxGeometry x="340" y="410" width="120" height="80" as="geometry" />
        </mxCell>
        <mxCell id="fiAWGYo_z49fpV4L9z-i-131" style="edgeStyle=orthogonalEdgeStyle;rounded=0;orthogonalLoop=1;jettySize=auto;html=1;entryX=0.2;entryY=0.833;entryDx=0;entryDy=0;entryPerimeter=0;strokeColor=#182E3E;fontColor=#1A1A1A;" parent="1" source="fiAWGYo_z49fpV4L9z-i-112" target="fiAWGYo_z49fpV4L9z-i-120" edge="1">
          <mxGeometry relative="1" as="geometry" />
        </mxCell>
        <mxCell id="fiAWGYo_z49fpV4L9z-i-134" style="edgeStyle=orthogonalEdgeStyle;rounded=0;orthogonalLoop=1;jettySize=auto;html=1;entryX=0;entryY=0.25;entryDx=0;entryDy=0;strokeColor=#182E3E;fontColor=#1A1A1A;" parent="1" source="fiAWGYo_z49fpV4L9z-i-112" target="fiAWGYo_z49fpV4L9z-i-133" edge="1">
          <mxGeometry relative="1" as="geometry" />
        </mxCell>
        <mxCell id="fiAWGYo_z49fpV4L9z-i-112" value="Do you want to continue?&amp;nbsp;" style="shape=hexagon;perimeter=hexagonPerimeter2;whiteSpace=wrap;html=1;fixedSize=1;strokeColor=#909090;fontColor=#1A1A1A;fillColor=#F5AB50;" parent="1" vertex="1">
          <mxGeometry x="600" y="300" width="100" height="65" as="geometry" />
        </mxCell>
        <mxCell id="Cdr7RzYkJ2RV1yq09txf-12" value="" style="edgeStyle=orthogonalEdgeStyle;rounded=0;orthogonalLoop=1;jettySize=auto;html=1;" edge="1" parent="1" source="fiAWGYo_z49fpV4L9z-i-113" target="Cdr7RzYkJ2RV1yq09txf-11">
          <mxGeometry relative="1" as="geometry" />
        </mxCell>
        <mxCell id="fiAWGYo_z49fpV4L9z-i-113" value="YES" style="shape=hexagon;perimeter=hexagonPerimeter2;whiteSpace=wrap;html=1;fixedSize=1;strokeColor=#909090;fontColor=#1A1A1A;fillColor=#F5AB50;size=30;" parent="1" vertex="1">
          <mxGeometry x="610" y="490" width="100" height="60" as="geometry" />
        </mxCell>
        <mxCell id="fiAWGYo_z49fpV4L9z-i-162" value="" style="edgeStyle=orthogonalEdgeStyle;rounded=0;orthogonalLoop=1;jettySize=auto;html=1;strokeColor=#182E3E;fontColor=#1A1A1A;" parent="1" source="fiAWGYo_z49fpV4L9z-i-115" edge="1">
          <mxGeometry relative="1" as="geometry">
            <mxPoint x="1310.0320000000002" y="141.29999999999995" as="targetPoint" />
          </mxGeometry>
        </mxCell>
        <mxCell id="fiAWGYo_z49fpV4L9z-i-173" value="" style="edgeStyle=orthogonalEdgeStyle;rounded=0;orthogonalLoop=1;jettySize=auto;html=1;strokeColor=#182E3E;fontColor=#1A1A1A;" parent="1" source="fiAWGYo_z49fpV4L9z-i-116" edge="1">
          <mxGeometry relative="1" as="geometry">
            <mxPoint x="1310" y="222.5" as="targetPoint" />
          </mxGeometry>
        </mxCell>
        <mxCell id="fiAWGYo_z49fpV4L9z-i-139" value="" style="edgeStyle=orthogonalEdgeStyle;rounded=0;orthogonalLoop=1;jettySize=auto;html=1;strokeColor=#182E3E;fontColor=#1A1A1A;" parent="1" source="fiAWGYo_z49fpV4L9z-i-117" target="fiAWGYo_z49fpV4L9z-i-119" edge="1">
          <mxGeometry relative="1" as="geometry" />
        </mxCell>
        <mxCell id="Cdr7RzYkJ2RV1yq09txf-13" style="edgeStyle=orthogonalEdgeStyle;rounded=0;orthogonalLoop=1;jettySize=auto;html=1;exitX=1;exitY=0.75;exitDx=0;exitDy=0;" edge="1" parent="1" source="fiAWGYo_z49fpV4L9z-i-117" target="fiAWGYo_z49fpV4L9z-i-113">
          <mxGeometry relative="1" as="geometry" />
        </mxCell>
        <mxCell id="fiAWGYo_z49fpV4L9z-i-117" value="Do you want to continue?&amp;nbsp;" style="shape=hexagon;perimeter=hexagonPerimeter2;whiteSpace=wrap;html=1;fixedSize=1;strokeColor=#909090;fontColor=#1A1A1A;fillColor=#F5AB50;" parent="1" vertex="1">
          <mxGeometry x="480" y="425" width="100" height="65" as="geometry" />
        </mxCell>
        <mxCell id="fiAWGYo_z49fpV4L9z-i-140" value="" style="edgeStyle=orthogonalEdgeStyle;rounded=0;orthogonalLoop=1;jettySize=auto;html=1;strokeColor=#182E3E;fontColor=#1A1A1A;" parent="1" source="fiAWGYo_z49fpV4L9z-i-119" target="fiAWGYo_z49fpV4L9z-i-121" edge="1">
          <mxGeometry relative="1" as="geometry" />
        </mxCell>
        <mxCell id="fiAWGYo_z49fpV4L9z-i-119" value="NO" style="shape=hexagon;perimeter=hexagonPerimeter2;whiteSpace=wrap;html=1;fixedSize=1;strokeColor=#909090;fontColor=#1A1A1A;fillColor=#F5AB50;size=30;" parent="1" vertex="1">
          <mxGeometry x="610" y="400" width="100" height="60" as="geometry" />
        </mxCell>
        <mxCell id="fiAWGYo_z49fpV4L9z-i-132" style="edgeStyle=orthogonalEdgeStyle;rounded=0;orthogonalLoop=1;jettySize=auto;html=1;entryX=0;entryY=0.5;entryDx=0;entryDy=0;strokeColor=#182E3E;fontColor=#1A1A1A;" parent="1" source="fiAWGYo_z49fpV4L9z-i-120" target="fiAWGYo_z49fpV4L9z-i-31" edge="1">
          <mxGeometry relative="1" as="geometry" />
        </mxCell>
        <mxCell id="fiAWGYo_z49fpV4L9z-i-120" value="NO" style="shape=hexagon;perimeter=hexagonPerimeter2;whiteSpace=wrap;html=1;fixedSize=1;strokeColor=#909090;fontColor=#1A1A1A;fillColor=#F5AB50;size=30;" parent="1" vertex="1">
          <mxGeometry x="690" y="190" width="100" height="60" as="geometry" />
        </mxCell>
        <mxCell id="fiAWGYo_z49fpV4L9z-i-121" value="End of the process" style="ellipse;whiteSpace=wrap;html=1;aspect=fixed;fillColor=#F5AB50;strokeColor=#909090;fontColor=#1A1A1A;" parent="1" vertex="1">
          <mxGeometry x="747" y="380" width="80" height="80" as="geometry" />
        </mxCell>
        <mxCell id="Cdr7RzYkJ2RV1yq09txf-10" value="" style="edgeStyle=orthogonalEdgeStyle;rounded=0;orthogonalLoop=1;jettySize=auto;html=1;" edge="1" parent="1" source="fiAWGYo_z49fpV4L9z-i-133" target="fiAWGYo_z49fpV4L9z-i-213">
          <mxGeometry relative="1" as="geometry" />
        </mxCell>
        <mxCell id="fiAWGYo_z49fpV4L9z-i-133" value="YES" style="shape=hexagon;perimeter=hexagonPerimeter2;whiteSpace=wrap;html=1;fixedSize=1;strokeColor=#909090;fontColor=#1A1A1A;fillColor=#F5AB50;size=30;" parent="1" vertex="1">
          <mxGeometry x="730" y="302.5" width="100" height="60" as="geometry" />
        </mxCell>
        <mxCell id="fiAWGYo_z49fpV4L9z-i-164" value="" style="edgeStyle=orthogonalEdgeStyle;rounded=0;orthogonalLoop=1;jettySize=auto;html=1;strokeColor=#182E3E;fontColor=#1A1A1A;" parent="1" source="fiAWGYo_z49fpV4L9z-i-154" edge="1">
          <mxGeometry relative="1" as="geometry">
            <mxPoint x="1550" y="30" as="targetPoint" />
          </mxGeometry>
        </mxCell>
        <mxCell id="fiAWGYo_z49fpV4L9z-i-166" value="" style="edgeStyle=orthogonalEdgeStyle;rounded=0;orthogonalLoop=1;jettySize=auto;html=1;strokeColor=#182E3E;fontColor=#1A1A1A;" parent="1" source="fiAWGYo_z49fpV4L9z-i-155" edge="1">
          <mxGeometry relative="1" as="geometry">
            <mxPoint x="1550" y="120" as="targetPoint" />
          </mxGeometry>
        </mxCell>
        <mxCell id="fiAWGYo_z49fpV4L9z-i-167" value="" style="edgeStyle=orthogonalEdgeStyle;rounded=0;orthogonalLoop=1;jettySize=auto;html=1;strokeColor=#182E3E;fontColor=#1A1A1A;" parent="1" source="fiAWGYo_z49fpV4L9z-i-157" edge="1">
          <mxGeometry relative="1" as="geometry">
            <mxPoint x="1480" y="220" as="targetPoint" />
          </mxGeometry>
        </mxCell>
        <mxCell id="fiAWGYo_z49fpV4L9z-i-168" value="" style="edgeStyle=orthogonalEdgeStyle;rounded=0;orthogonalLoop=1;jettySize=auto;html=1;strokeColor=#182E3E;fontColor=#1A1A1A;" parent="1" source="fiAWGYo_z49fpV4L9z-i-158" edge="1">
          <mxGeometry relative="1" as="geometry">
            <mxPoint x="1550" y="210" as="targetPoint" />
          </mxGeometry>
        </mxCell>
        <mxCell id="fiAWGYo_z49fpV4L9z-i-197" value="" style="edgeStyle=orthogonalEdgeStyle;rounded=0;orthogonalLoop=1;jettySize=auto;html=1;strokeColor=#182E3E;fontColor=#1A1A1A;" parent="1" target="fiAWGYo_z49fpV4L9z-i-183" edge="1">
          <mxGeometry relative="1" as="geometry">
            <mxPoint x="1540" y="710" as="sourcePoint" />
          </mxGeometry>
        </mxCell>
        <mxCell id="fiAWGYo_z49fpV4L9z-i-200" value="" style="edgeStyle=orthogonalEdgeStyle;rounded=0;orthogonalLoop=1;jettySize=auto;html=1;strokeColor=#182E3E;fontColor=#1A1A1A;" parent="1" target="fiAWGYo_z49fpV4L9z-i-186" edge="1">
          <mxGeometry relative="1" as="geometry">
            <mxPoint x="1540" y="872.5" as="sourcePoint" />
          </mxGeometry>
        </mxCell>
        <mxCell id="fiAWGYo_z49fpV4L9z-i-218" value="" style="edgeStyle=orthogonalEdgeStyle;rounded=0;orthogonalLoop=1;jettySize=auto;html=1;strokeColor=#182E3E;fontColor=#1A1A1A;" parent="1" source="fiAWGYo_z49fpV4L9z-i-203" edge="1">
          <mxGeometry relative="1" as="geometry">
            <mxPoint x="1630" y="632.5" as="targetPoint" />
          </mxGeometry>
        </mxCell>
        <mxCell id="fiAWGYo_z49fpV4L9z-i-225" value="" style="edgeStyle=orthogonalEdgeStyle;rounded=0;orthogonalLoop=1;jettySize=auto;html=1;strokeColor=#182E3E;fontColor=#1A1A1A;" parent="1" source="fiAWGYo_z49fpV4L9z-i-207" edge="1">
          <mxGeometry relative="1" as="geometry">
            <mxPoint x="1560" y="815" as="targetPoint" />
          </mxGeometry>
        </mxCell>
        <mxCell id="fiAWGYo_z49fpV4L9z-i-229" value="" style="edgeStyle=orthogonalEdgeStyle;rounded=0;orthogonalLoop=1;jettySize=auto;html=1;strokeColor=#182E3E;fontColor=#1A1A1A;" parent="1" source="fiAWGYo_z49fpV4L9z-i-210" edge="1">
          <mxGeometry relative="1" as="geometry">
            <mxPoint x="1560" y="987.5" as="targetPoint" />
          </mxGeometry>
        </mxCell>
        <mxCell id="fiAWGYo_z49fpV4L9z-i-213" value="User gets back to menu" style="ellipse;whiteSpace=wrap;html=1;aspect=fixed;strokeColor=#909090;fontColor=#1A1A1A;fillColor=#F5AB50;" parent="1" vertex="1">
          <mxGeometry x="860" y="292.5" width="80" height="80" as="geometry" />
        </mxCell>
        <mxCell id="Cdr7RzYkJ2RV1yq09txf-11" value="User gets back to menu" style="ellipse;whiteSpace=wrap;html=1;aspect=fixed;strokeColor=#909090;fontColor=#1A1A1A;fillColor=#F5AB50;" vertex="1" parent="1">
          <mxGeometry x="747" y="480" width="80" height="80" as="geometry" />
        </mxCell>
      </root>
    </mxGraphModel>
  </diagram>
</mxfile>
